<svg width="23" height="28" viewBox="0 0 23 28" fill="none" xmlns="http://www.w3.org/2000/svg">
<g clip-path="url(#clip0_262_859)">
<path d="M19.7695 0.70575H2.62327C1.17728 0.70575 0 1.92697 0 3.44028V21.3872C0 22.9005 1.17719 24.1217 2.62318 24.1217H17.1336L16.4554 21.666L18.0933 23.2456L19.6415 24.7323L22.3927 27.2545V3.44028C22.3927 1.92697 21.2155 0.70575 19.7695 0.70575ZM14.8303 18.0422C14.8303 18.0422 14.3697 17.4713 13.9858 16.9669C15.6621 16.4757 16.3019 15.3872 16.3019 15.3872C15.7772 15.7456 15.2782 15.9979 14.8303 16.1703C14.1906 16.4492 13.5763 16.6349 12.975 16.7412C11.7465 16.9801 10.6205 16.9138 9.66086 16.7279C8.93144 16.5818 8.30444 16.3695 7.77988 16.1572C7.48554 16.0376 7.16565 15.8916 6.84568 15.7058C6.80737 15.6792 6.76897 15.666 6.73057 15.6394C6.70503 15.6261 6.69217 15.6129 6.6794 15.5996C6.44909 15.4669 6.32112 15.374 6.32112 15.374C6.32112 15.374 6.93534 16.4359 8.56038 16.9403C8.17656 17.4448 7.70308 18.0421 7.70308 18.0421C4.87513 17.9491 3.80037 16.0244 3.80037 16.0244C3.80037 11.7501 5.64295 8.2854 5.64295 8.2854C7.48554 6.85176 9.23855 6.89159 9.23855 6.89159L9.36652 7.05094C7.06331 7.74104 6.00123 8.78984 6.00123 8.78984C6.00123 8.78984 6.28272 8.63059 6.75611 8.40491C8.1253 7.78096 9.21301 7.60846 9.66086 7.56862C9.73757 7.55529 9.8016 7.54204 9.8784 7.54204C10.7359 7.42615 11.6037 7.41726 12.4632 7.51554C13.6787 7.66155 14.9839 8.03323 16.3146 8.78984C16.3146 8.78984 15.3038 7.7943 13.1285 7.10402L13.3076 6.89168C13.3076 6.89168 15.0606 6.85176 16.9032 8.28549C16.9032 8.28549 18.7459 11.7501 18.7459 16.0244C18.7459 16.0244 17.6582 17.9491 14.8303 18.0421V18.0422ZM8.88027 11.843C8.15093 11.843 7.57519 12.5067 7.57519 13.3164C7.57519 14.1262 8.1637 14.7898 8.88027 14.7898C9.60969 14.7898 10.1854 14.1262 10.1854 13.3164C10.1983 12.5067 9.60969 11.843 8.88035 11.843H8.88027ZM13.5508 11.843C12.8214 11.843 12.2456 12.5067 12.2456 13.3164C12.2456 14.1262 12.8342 14.7898 13.5508 14.7898C14.2801 14.7898 14.8559 14.1262 14.8559 13.3164C14.8559 12.5067 14.2801 11.843 13.5508 11.843Z" fill="white"/>
</g>
<defs>
<clipPath id="clip0_262_859">
<rect width="22.3927" height="26.5913" fill="white" transform="translate(0 0.704346)"/>
</clipPath>
</defs>
</svg>
